<svg width="36" height="21" viewBox="0 0 36 21">
  <path fill-rule="evenodd" d="M16.588,19 L16.588,10.6 L13.108,10.6 L13.108,12.196 L14.692,12.196 L14.692,19 L16.588,19 Z M22.7337144,10.54 C25.0857144,10.54 26.3937144,12.052 26.3937144,14.788 C26.3937144,17.536 25.0857144,19.06 22.7337144,19.06 C20.3577144,19.06 19.0617144,17.536 19.0617144,14.788 C19.0617144,12.052 20.3577144,10.54 22.7337144,10.54 Z M22.7337144,11.992 C21.5457144,11.992 21.0057144,12.82 21.0057144,14.788 C21.0057144,16.768 21.5457144,17.608 22.7337144,17.608 C23.9097144,17.608 24.4497144,16.768 24.4497144,14.788 C24.4497144,12.82 23.9097144,11.992 22.7337144,11.992 Z M31.8074287,10.54 C34.1594287,10.54 35.4674287,12.052 35.4674287,14.788 C35.4674287,17.536 34.1594287,19.06 31.8074287,19.06 C29.4314287,19.06 28.1354287,17.536 28.1354287,14.788 C28.1354287,12.052 29.4314287,10.54 31.8074287,10.54 Z M31.8074287,11.992 C32.9834287,11.992 33.5234287,12.82 33.5234287,14.788 C33.5234287,16.768 32.9834287,17.608 31.8074287,17.608 C30.6194287,17.608 30.0794287,16.768 30.0794287,14.788 C30.0794287,12.82 30.6194287,11.992 31.8074287,11.992 Z M15.2982057,0 L17.2982057,0 L2,20.7814937 L0,20.7814937 L15.2982057,0 Z"/>
</svg>
