<?xml version="1.0" encoding="UTF-8" standalone="no"?>
<svg width="80px" height="80px" viewBox="0 0 80 80" version="1.1" xmlns="http://www.w3.org/2000/svg" xmlns:xlink="http://www.w3.org/1999/xlink" xmlns:sketch="http://www.bohemiancoding.com/sketch/ns">
    <title>Icon - Info</title>
    <description>Created with Sketch (http://www.bohemiancoding.com/sketch)</description>
    <defs></defs>
    <g id="Page-1" stroke="none" stroke-width="1" fill="none" fill-rule="evenodd" sketch:type="MSPage">
        <g id="Icon---Info" sketch:type="MSArtboardGroup">
            <g id="Oval-15-+-Path-24-+-Oval-15" sketch:type="MSLayerGroup" transform="translate(1.000000, 1.000000)">
                <path d="M39,78 C60.5391063,78 78,60.5391063 78,39 C78,17.4608937 60.5391063,0 39,0 C17.4608937,0 0,17.4608937 0,39 C0,60.5391063 17.4608937,78 39,78 Z" id="Oval-15" fill="#202020" sketch:type="MSShapeGroup"></path>
                <path d="M33.7688535,33.9245183 C33.7688535,33.9245183 36.6556638,30.3663191 39.1826371,29.4233147 C40.976318,28.753957 43.1099974,28.9745058 43.9196989,29.4233147 C44.5779231,29.7881613 45.7683829,31.5061482 45.9498675,33.1743177 C46.2257349,35.7100353 45.273145,38.425722 45.273145,38.425722 L39.1826377,52.6795335 C39.1826377,52.6795335 35.7829856,60.5477515 36.4757455,60.9317409 C36.82097,61.1230951 38.865207,59.5476062 40.5360832,57.9309389 C42.0629083,56.4536491 43.2429759,54.9301354 43.2429759,54.9301354 C43.2429759,54.9301354 43.9196984,54.1799353 44.5964214,54.930136 C45.2731444,55.6803366 44.596422,57.1807372 44.596422,57.1807372 C44.596422,57.1807372 42.5097136,59.7152059 41.2128062,60.9317413 C39.5772472,62.4659416 35.7990225,65.4329439 35.7990225,65.4329439 C35.7990225,65.4329439 34.3813149,66.6070933 32.4154074,66.9333457 C30.9597638,67.1749176 28.9383283,66.721969 28.3550691,66.1831451 C27.7501345,65.6242971 27.0348212,64.1742892 27.001623,62.4321421 C26.9615075,60.3269907 27.6783461,57.9309378 27.6783461,57.9309378 L36.4757455,38.425722 C36.4757455,38.425722 37.1524687,36.9253211 36.4757456,36.1751205 C35.7990226,35.4249198 35.1222995,36.1751201 35.1222995,36.1751201 L31.7386844,42.1767254 C31.7386844,42.1767254 30.3852382,42.9269266 29.7085152,42.176726 C29.0317922,41.4265253 29.7085153,40.6763241 29.7085153,40.6763241 L33.7688535,33.9245183 Z" id="Path-24" fill="#FFFFFF" sketch:type="MSShapeGroup"></path>
                <path d="M43.4930616,22.5069384 C45.7060327,24.7199095 49.2939673,24.7199095 51.5069384,22.5069384 C53.7199095,20.2939673 53.7199095,16.7060327 51.5069384,14.4930616 C49.2939673,12.2800905 45.7060327,12.2800905 43.4930616,14.4930616 C41.2800905,16.7060327 41.2800905,20.2939673 43.4930616,22.5069384 Z" id="Oval-15" fill="#FFFFFF" sketch:type="MSShapeGroup"></path>
            </g>
        </g>
    </g>
</svg>