<svg width="352" height="689" viewBox="0 0 352 689">
  <path fill="#FFE5D0" fill-rule="evenodd" d="M86.9615958,658.985242 L277.961994,658.985242 C320.800679,658.985242 330.0264,628.697624 330.0264,606.921409 L330.0264,77.7246328 C330.0264,48.4833015 314.995189,25.6624423 276.21,25.6624423 C209.679094,25.6624423 143.156907,25.6624423 76.626,25.6624423 C38.4567886,25.6624423 22.8096,48.4886496 22.8096,77.7246328 C22.8096,254.128773 22.8096,430.532914 22.8096,606.937055 C22.8096,636.03721 37.7105926,658.639309 74.1312081,658.981309 C74.1367742,658.195025 77.0068205,657.558 80.5464,657.558 C84.0894171,657.558 86.9616,658.196263 86.9616,658.9836 C86.9616,658.984148 86.9615986,658.984695 86.9615958,658.985242 Z"/>
</svg>
