<svg width="352" height="689" viewBox="0 0 352 689">
  <path fill="#FFE5D0" fill-rule="evenodd" d="M86.4830597,661 L279.064602,661 C322.257915,661 331.560009,630.488703 331.560009,608.551666 L331.560009,75.4466789 C331.560009,45.9893952 316.404366,23 277.298105,23 C210.216441,23 143.143569,23 76.0619035,23 C37.5767188,23 21.7999992,45.9947828 21.7999992,75.4466789 C21.7999992,253.153595 21.7999992,430.860511 21.7999992,608.567427 C21.7999992,637.882493 36.8243456,660.651512 73.5464592,660.996037 C73.5520713,660.203947 76.4458765,659.562217 80.0147575,659.562217 C83.5871045,659.562217 86.4830639,660.205194 86.4830639,660.998346 C86.4830639,660.998897 86.4830625,660.999449 86.4830597,661 Z"/>
</svg>
