<?xml version="1.0" encoding="UTF-8" standalone="no"?>
<svg width="80px" height="80px" viewBox="0 0 80 80" version="1.1" xmlns="http://www.w3.org/2000/svg" xmlns:xlink="http://www.w3.org/1999/xlink" xmlns:sketch="http://www.bohemiancoding.com/sketch/ns">
    <title>Icon - Writing</title>
    <description>Created with Sketch (http://www.bohemiancoding.com/sketch)</description>
    <defs></defs>
    <g id="Page-1" stroke="none" stroke-width="1" fill="none" fill-rule="evenodd" sketch:type="MSPage">
        <g id="Icon---Writing" sketch:type="MSArtboardGroup" fill="#626262">
            <g id="Typewriter" sketch:type="MSLayerGroup" transform="translate(10.000000, -6.000000)">
                <rect id="Rectangle-82" sketch:type="MSShapeGroup" x="54" y="29" width="6" height="14"></rect>
                <rect id="Rectangle-82-copy" sketch:type="MSShapeGroup" x="0" y="29" width="6" height="14"></rect>
                <path d="M23.030147,27.1708631 L15.9587241,34.242286 L15.9587241,34.242286 C19.569762,37.8026748 24.5282744,40 30,40 C35.4717256,40 40.430238,37.8026748 44.0412759,34.242286 L36.969853,27.1708631 C35.1687675,28.9217719 32.7103006,30 30,30 C27.2896994,30 24.8312325,28.9217719 23.030147,27.1708631 Z" id="Rectangle-81" sketch:type="MSShapeGroup"></path>
                <ellipse id="Oval-50" sketch:type="MSShapeGroup" cx="10" cy="59" rx="5" ry="4"></ellipse>
                <ellipse id="Oval-50-copy" sketch:type="MSShapeGroup" cx="30" cy="59" rx="5" ry="4"></ellipse>
                <ellipse id="Oval-50-copy-2" sketch:type="MSShapeGroup" cx="50" cy="59" rx="5" ry="4"></ellipse>
                <path d="M20,51 C22.7614239,51 25,49.2091391 25,47 C25,44.7908609 22.7614239,43 20,43 C17.2385761,43 15,44.7908609 15,47 C15,49.2091391 17.2385761,51 20,51 Z" id="Oval-50-copy-2" sketch:type="MSShapeGroup"></path>
                <ellipse id="Oval-50-copy-3" sketch:type="MSShapeGroup" cx="40" cy="47" rx="5" ry="4"></ellipse>
                <path d="M20,75 L40,75 C42.7614239,75 45,73.4329967 45,71.5 C45,69.5670033 42.7614239,68 40,68 L20,68 C17.2385761,68 15,69.5670033 15,71.5 C15,73.4329967 17.2385761,75 20,75 Z" id="Rectangle-80-copy" sketch:type="MSShapeGroup"></path>
            </g>
        </g>
    </g>
</svg>